<?xml version="1.0" encoding="UTF-8"?><svg id="a" xmlns="http://www.w3.org/2000/svg" width="48" height="48" viewBox="0 0 48 48"><path d="M34,2.9993H14c-2.7578,0-5,2.2432-5,5V41.9954c0,1.1865,.6699,2.2305,1.7461,2.7256,.4082,.1875,.8379,.2793,1.2617,.2793,.6992,0,1.3848-.2471,1.9434-.7266l9.4004-8.0547c.375-.3242,.9199-.3232,1.2988,.001l9.3984,8.0527c.8965,.7715,2.1211,.9443,3.2051,.4482,1.0762-.4951,1.7461-1.5391,1.7461-2.7256V7.9993c0-2.7568-2.2422-5-5-5Zm3,38.9961c0,.5947-.4453,.8457-.582,.9092-.1367,.0615-.6172,.2354-1.0684-.1504l-9.3965-8.0527c-1.1328-.9707-2.7754-.9717-3.9043-.001l-9.3984,8.0547c-.4512,.3848-.9316,.2109-1.0684,.1494-.1367-.0635-.582-.3145-.582-.9092V7.9993c0-1.6543,1.3457-3,3-3h20c1.6543,0,3,1.3457,3,3V41.9954Z"/></svg>