<?xml version="1.0" standalone="no"?>
<!DOCTYPE svg PUBLIC "-//W3C//DTD SVG 20010904//EN"
 "http://www.w3.org/TR/2001/REC-SVG-20010904/DTD/svg10.dtd">
<svg version="1.0" xmlns="http://www.w3.org/2000/svg"
 width="1280.000000pt" height="1280.000000pt" viewBox="0 0 1280.000000 1280.000000"
 preserveAspectRatio="xMidYMid meet">
<metadata>
Created by potrace 1.16, written by Peter Selinger 2001-2019
</metadata>
<g transform="translate(0.000000,1280.000000) scale(0.100000,-0.100000)"
fill="#000000" stroke="none">
<path d="M3389 8929 c-46 -16 -315 -225 -1545 -1199 -1085 -860 -1496 -1191
-1516 -1222 -23 -35 -28 -53 -28 -108 0 -55 5 -73 28 -108 19 -31 420 -353
1467 -1183 792 -628 1466 -1161 1497 -1184 190 -142 467 -77 570 133 l33 67 3
430 3 431 57 -3 c31 -2 800 -37 1707 -79 908 -41 2339 -106 3180 -144 3634
-166 3300 -152 3368 -135 115 29 204 104 255 213 24 51 27 69 27 167 0 100 -3
115 -26 160 -15 28 -194 317 -397 643 l-371 592 371 593 c203 325 382 615 397
642 23 45 26 60 26 160 0 104 -2 114 -33 177 -52 106 -151 183 -270 208 -48
11 -46 11 -3457 -145 -660 -30 -1992 -91 -2960 -134 -968 -44 -1786 -82 -1817
-84 l-57 -3 -3 430 -3 431 -27 57 c-34 73 -107 146 -183 183 -79 39 -210 45
-296 14z m139 -1442 c13 -20 43 -48 66 -62 57 -33 34 -34 1203 20 1815 83
3819 174 5478 249 908 41 1683 77 1724 80 56 5 72 3 68 -7 -3 -6 -183 -297
-401 -645 -218 -349 -401 -652 -407 -675 -12 -45 -5 -96 18 -142 9 -16 191
-310 406 -653 214 -343 387 -625 386 -626 -2 -2 -231 7 -509 20 -278 13 -1054
48 -1725 79 -2354 107 -4288 196 -5148 235 -1048 48 -1036 48 -1093 15 -23
-14 -53 -42 -66 -62 l-23 -38 -5 -493 -5 -493 -1200 952 c-660 523 -1257 997
-1328 1052 -70 55 -126 104 -125 109 2 4 599 481 1328 1058 l1325 1051 5 -493
5 -493 23 -38z"/>
</g>
</svg>
