<?xml version="1.0" encoding="utf-8"?>
<!-- Generator: Adobe Illustrator 19.2.1, SVG Export Plug-In . SVG Version: 6.00 Build 0)  -->
<svg version="1.1" id="Line" xmlns="http://www.w3.org/2000/svg" xmlns:xlink="http://www.w3.org/1999/xlink" x="0px" y="0px"
	 viewBox="0 0 32 32" enable-background="new 0 0 32 32" xml:space="preserve">
<path d="M30,3v7c0,0.552-0.447,1-1,1s-1-0.448-1-1V5.414l-7.293,7.293c-0.391,0.391-1.023,0.391-1.414,0
	c-0.391-0.391-0.391-1.023,0-1.414L26.586,4H22c-0.553,0-1-0.448-1-1s0.447-1,1-1h7C29.555,2,30,2.457,30,3z"/>
<path d="M12.707,19.293c0.391,0.391,0.391,1.023,0,1.414L5.414,28H10c0.553,0,1,0.447,1,1s-0.447,1-1,1H3c-0.548,0-1-0.448-1-1v-7
	c0-0.553,0.447-1,1-1s1,0.447,1,1v4.586l7.293-7.293C11.684,18.902,12.316,18.902,12.707,19.293z"/>
<path d="M30,22v7c0,0.553-0.453,1-1,1h-7c-0.553,0-1-0.447-1-1s0.447-1,1-1h4.586l-7.293-7.293c-0.391-0.391-0.391-1.023,0-1.414
	s1.023-0.391,1.414,0L28,26.586V22c0-0.553,0.447-1,1-1S30,21.447,30,22z"/>
<path d="M12.707,11.293c0.391,0.391,0.391,1.023,0,1.414c-0.391,0.391-1.023,0.391-1.414,0L4,5.414V10c0,0.552-0.447,1-1,1
	s-1-0.448-1-1V3c0-0.547,0.448-1,1-1h7c0.553,0,1,0.448,1,1s-0.447,1-1,1H5.414L12.707,11.293z"/>
</svg>
