<svg xmlns="http://www.w3.org/2000/svg" viewBox="0 0 64 64"><title>arrow 3</title><g id="Layer_24" data-name="Layer 24"><path d="M46.39648,44.73633A1.896,1.896,0,0,1,44.5,42.84082V39.04688L3.51318,40.917a1.9422,1.9422,0,0,1-1.74755-.94824A1.91789,1.91789,0,0,1,1.794,37.97754L5.52979,32,1.794,26.023A1.92308,1.92308,0,0,1,3.51416,23.083L44.5,24.95313V21.15869A1.89425,1.89425,0,0,1,47.68457,19.772L62.12109,31.21631a.9999.9999,0,0,1,0,1.56738L47.68457,44.22754A1.88546,1.88546,0,0,1,46.39648,44.73633ZM45.5,37a1.00047,1.00047,0,0,1,1,1v4.61523L59.89014,32,46.5,21.38525V26a.99975.99975,0,0,1-1.04541.999L3.56787,25.0874l3.98926,6.38281a.99939.99939,0,0,1,0,1.05958L3.56787,38.91211,45.45459,37.001C45.46973,37,45.48486,37,45.5,37ZM3.49023,39.03711Z"/></g></svg>