<svg id="line" xmlns="http://www.w3.org/2000/svg" viewBox="0 0 64 64"><path d="M59.99561,15.64355a1.00061,1.00061,0,0,0-.76709-.97265,36.34353,36.34353,0,0,0-4.17334-.73V11.97852a.999.999,0,0,0-.7168-.959A25.1234,25.1234,0,0,0,32.0498,15.085,26.80975,26.80975,0,0,0,9.69629,11.01172a.99931.99931,0,0,0-.74609.9668v2.046a38.1494,38.1494,0,0,0-4.16309.64154A1.00051,1.00051,0,0,0,4,15.64355L4.00537,52.875c.19714,2.08567,3.50887.25216,5.05125-.078A28.17738,28.17738,0,0,1,19.127,50.93359c4.43353.185,10.29.28972,12.52844,1.55034a.96494.96494,0,0,0,.84876-.01414c2.10661-1.44994,7.84273-1.55254,12.84791-1.504a31.30239,31.30239,0,0,1,10.91308,2.21c1.21566.3001,2.3886,1.199,3.355.61738A1.00052,1.00052,0,0,0,60,53.00879ZM42.75391,12.4248a23.24086,23.24086,0,0,1,10.30127.31446V45.96777c-6.35315-1.7711-15.24636.133-19.9858,3.65339l0-32.791A23.16376,23.16376,0,0,1,42.75391,12.4248ZM21.125,12.55957a24.98715,24.98715,0,0,1,9.94434,4.29492V49.84155a32.68455,32.68455,0,0,0-20.11915-3.74486V14.85327c.00012-.01953-.00009-2.06749,0-2.09062A24.98241,24.98241,0,0,1,21.125,12.55957Zm-1.90723,36.376c-5.33477-.212-9.03391,1.522-13.21239,2.708L6,16.459c.95935-.18505,1.94965-.31927,2.9502-.4284V47.26172a1.00663,1.00663,0,0,0,1.16944.98533,30.49436,30.49436,0,0,1,14.25707.92165C22.88418,49.091,20.80989,49.00392,19.21777,48.93555ZM56.938,51.292a33.06689,33.06689,0,0,0-11.56543-2.32617c-2.89765-.0307-5.24872.01746-7.172.1546,4.45575-2.20828,12.24169-2.157,15.57728-.89745a1.00779,1.00779,0,0,0,1.27732-.96127l0-31.311c.97985.12415,1.95489.27637,2.94043.48975L58,51.665C57.669,51.55273,57.314,51.42578,56.938,51.292Z"/><path d="M14.34717,19.80176c3.894-1.32345,10.0129.21706,12.54243,2.48272a1.00026,1.00026,0,0,0,1.208-1.59409A16.63374,16.63374,0,0,0,13.8374,17.8682,1,1,0,0,0,14.34717,19.80176Z"/><path d="M14.34717,25.10645c3.89046-1.32231,10.01461.2168,12.54243,2.48272a1.00026,1.00026,0,0,0,1.208-1.59409,16.6337,16.6337,0,0,0-14.2602-2.8222A1,1,0,0,0,14.34717,25.10645Z"/><path d="M14.34717,30.41113c3.8903-1.32324,10.01466.21731,12.54243,2.48273a1.00026,1.00026,0,0,0,1.208-1.59409,16.6337,16.6337,0,0,0-14.2602-2.8222A1,1,0,0,0,14.34717,30.41113Z"/><path d="M14.34717,35.71582c3.89024-1.324,10.01461.21756,12.54243,2.48273a1.00026,1.00026,0,0,0,1.208-1.59409,16.63521,16.63521,0,0,0-14.2602-2.8222A1,1,0,0,0,14.34717,35.71582Z"/><path d="M14.34717,41.02051c3.89017-1.32408,10.01442.21819,12.54243,2.48272a1.00026,1.00026,0,0,0,1.208-1.59409,16.6393,16.6393,0,0,0-14.2602-2.8222A1,1,0,0,0,14.34717,41.02051Z"/><path d="M36.56885,22.34766a.99731.99731,0,0,0,.603-.20313,14.57179,14.57179,0,0,1,12.54248-2.48242,1,1,0,0,0,.5097-1.93361,16.574,16.574,0,0,0-14.26019,2.82228A1.00651,1.00651,0,0,0,36.56885,22.34766Z"/><path d="M36.56885,27.65234a.99729.99729,0,0,0,.603-.20312A14.571,14.571,0,0,1,49.71436,24.9668a1,1,0,0,0,.5097-1.93361,16.574,16.574,0,0,0-14.26019,2.82228A1.00651,1.00651,0,0,0,36.56885,27.65234Z"/><path d="M36.56885,32.957a.99729.99729,0,0,0,.603-.20312,14.57108,14.57108,0,0,1,12.54248-2.48243,1,1,0,0,0,.5097-1.9336,16.574,16.574,0,0,0-14.26019,2.82228A1.00651,1.00651,0,0,0,36.56885,32.957Z"/><path d="M36.56885,38.26172a.99731.99731,0,0,0,.603-.20313,14.571,14.571,0,0,1,12.54248-2.48242,1,1,0,0,0,.5097-1.9336,16.57394,16.57394,0,0,0-14.26019,2.82227A1.00651,1.00651,0,0,0,36.56885,38.26172Z"/><path d="M50.22412,38.94727a16.641,16.641,0,0,0-14.26025,2.82229.9999.9999,0,0,0,1.208,1.59372c2.53231-2.26682,8.64753-3.80225,12.54252-2.48212A1.00016,1.00016,0,0,0,50.22412,38.94727Z"/></svg>