<svg id="Layer_1" data-name="Layer 1" xmlns="http://www.w3.org/2000/svg" viewBox="0 0 110 110"><path d="M103,99.38H7a1,1,0,0,1-1-1.26l11.53-44a1,1,0,0,1,1-.74H48.09a1,1,0,0,1,.85.46c1.18,1.89,2.44,3.83,3.73,5.76,1.67,2.48,3.08,4.49,3.91,5.66.83-1.17,2.25-3.18,3.92-5.66C61.6,58,62.9,56,64.23,53.84a1,1,0,0,1,.85-.46H91.47a1,1,0,0,1,1,.74l11.53,44a1,1,0,0,1-1,1.26Zm-94.7-2h93.4l-11-42H65.63c-1.24,2-2.44,3.79-3.47,5.33-2.71,4-4.75,6.82-4.77,6.85a1,1,0,0,1-1.62,0S53.71,64.74,51,60.71c-1.2-1.78-2.36-3.58-3.47-5.33H19.3Z"/><path d="M94.73,93.59H15.27a1,1,0,0,1-1-1.25L22.8,59.9a1,1,0,0,1,1-.75H51.84a1,1,0,0,1,.83.45c1.67,2.48,3.08,4.49,3.91,5.66.83-1.17,2.25-3.18,3.92-5.66a1,1,0,0,1,.83-.45h24.9a1,1,0,0,1,1,.75l8.5,32.44a1,1,0,0,1-1,1.25Zm-78.16-2H93.44l-8-30.44H61.86c-2.56,3.8-4.45,6.38-4.47,6.41a1,1,0,0,1-1.62,0S53.86,65,51.31,61.15H24.54Z"/><path d="M58.35,93.59H52.17a1,1,0,0,1-.92-.6L46.57,82.13l-27-5.89a1,1,0,0,1-.64-.45,1,1,0,0,1-.12-.78l1.44-5.49a1,1,0,0,1,1.18-.72l21.4,4.68L37.29,60.55a1,1,0,0,1,.08-.95,1,1,0,0,1,.84-.45H44.4a1,1,0,0,1,.92.61l6.74,15.68,40.85,8.47a1,1,0,0,1,.77.72l1.61,6.14A1,1,0,0,1,94.12,92L55.78,84.07l3.49,8.13a1,1,0,0,1-.08,1A1,1,0,0,1,58.35,93.59Zm-5.52-2h4L53.18,83.1a1,1,0,0,1,.15-1,1,1,0,0,1,1-.34l38.64,8-1-4L51.15,77.29a1,1,0,0,1-.72-.58L43.74,61.15h-4l5.74,13.33a1,1,0,0,1-1.13,1.37L22,71,21,74.51,47.5,80.29a1,1,0,0,1,.71.58Z"/><path d="M56.58,68a1,1,0,0,1-.81-.4S53.71,64.74,51,60.71c-1.3-1.94-2.57-3.9-3.77-5.8-7.08-11.3-10.67-19.47-10.67-24.28a20,20,0,0,1,40,0c0,4.79-3.59,13-10.67,24.28-1.35,2.14-2.66,4.13-3.77,5.8-2.71,4-4.75,6.82-4.77,6.85A1,1,0,0,1,56.58,68Zm0-55.34a18,18,0,0,0-18,18C38.57,35,42.15,43,48.94,53.84c1.18,1.89,2.44,3.83,3.73,5.76,1.67,2.48,3.08,4.49,3.91,5.66.83-1.17,2.25-3.18,3.92-5.66C61.6,58,62.9,56,64.23,53.84,71,43,74.6,35,74.6,30.63A18,18,0,0,0,56.58,12.62Z"/><path d="M56.58,41.81a11,11,0,1,1,11-11A11.06,11.06,0,0,1,56.58,41.81Zm0-20.08a9,9,0,1,0,9,9A9,9,0,0,0,56.58,21.73Z"/></svg>