<?xml version="1.0" encoding="utf-8"?>
<!-- Generator: Adobe Illustrator 25.1.0, SVG Export Plug-In . SVG Version: 6.00 Build 0)  -->
<svg version="1.1" id="Layer_1" xmlns="http://www.w3.org/2000/svg" xmlns:xlink="http://www.w3.org/1999/xlink" x="0px" y="0px"
	 viewBox="0 0 5000 5000" style="enable-background:new 0 0 5000 5000;" xml:space="preserve">
<style type="text/css">
	.st0{fill:#231F20;}
</style>
<g>
	<path class="st0" d="M3921,1636.4H1294.74v197.87h-215.86v269.82c0,19.87,16.11,35.98,35.98,35.98c19.87,0,35.98-16.11,35.98-35.98
		v-197.87h2482.36V3291.3H1150.83v-989.34c0-19.87-16.11-35.98-35.98-35.98c-19.87,0-35.98,16.11-35.98,35.98v1061.3h2626.26
		v-197.87H3921V1636.4z M3849.05,3093.43h-143.9V1834.26H1366.69v-125.92h2482.36V3093.43z"/>
	<path class="st0" d="M2356.04,3075.44v-953.37c0-19.87-16.11-35.98-35.98-35.98c-19.87,0-35.98,16.11-35.98,35.98v953.37
		c0,19.87,16.11,35.98,35.98,35.98C2339.93,3111.42,2356.04,3095.31,2356.04,3075.44z"/>
	<path class="st0" d="M3452.74,2337.93c30.07,0,54.54-24.46,54.54-54.54v-214.72c0-30.07-24.46-54.54-54.54-54.54h-214.72
		c-30.07,0-54.53,24.46-54.53,54.54v214.72c0,30.07,24.46,54.54,54.53,54.54H3452.74z M3255.44,2086.1h179.88v179.88h-179.88V2086.1
		z"/>
	<path class="st0" d="M2571.89,2679.7c0,19.87,16.11,35.98,35.98,35.98h863.43c19.87,0,35.98-16.11,35.98-35.98
		c0-19.87-16.11-35.98-35.98-35.98h-863.43C2588,2643.73,2571.89,2659.84,2571.89,2679.7z"/>
	<path class="st0" d="M2607.87,3003.49h863.43c19.87,0,35.98-16.11,35.98-35.98c0-19.87-16.11-35.98-35.98-35.98h-863.43
		c-19.87,0-35.98,16.11-35.98,35.98C2571.89,2987.38,2588,3003.49,2607.87,3003.49z"/>
	<path class="st0" d="M1482.89,2561.71c1.11-0.57,110.86-56.63,177.12-3.65c29.07,23.26,64.74,31.79,101.44,31.79
		c92.98-0.01,192.47-54.76,207.37-63.28c17.25-9.85,23.25-31.83,13.39-49.08c-9.85-17.24-31.83-23.26-49.08-13.39
		c-41.68,23.79-173.06,81.88-228.16,37.78c-103.91-83.11-249.78-6.94-255.93-3.64c-17.53,9.35-24.17,31.14-14.82,48.67
		C1443.55,2564.42,1465.35,2571.04,1482.89,2561.71z"/>
	<path class="st0" d="M1434.22,2726.77c9.34,17.52,31.13,24.14,48.67,14.82c1.11-0.57,110.86-56.64,177.12-3.65
		c29.07,23.26,64.74,31.79,101.44,31.79c92.98-0.01,192.47-54.76,207.37-63.28c17.25-9.85,23.25-31.83,13.39-49.08
		c-9.85-17.23-31.83-23.24-49.08-13.39c-41.68,23.8-173.06,81.89-228.16,37.78c-103.91-83.1-249.78-6.93-255.93-3.65
		C1431.5,2687.45,1424.86,2709.24,1434.22,2726.77z"/>
	<path class="st0" d="M1312.73,2913.55c0,89.26,72.63,161.89,161.89,161.89c89.26,0,161.89-72.63,161.89-161.89
		c0-3.17-0.3-6.26-0.48-9.38c8.63,3.62,16.77,7.9,24.05,13.72c29.03,23.23,64.66,31.75,101.31,31.75
		c92.97,0,192.48-54.81,207.4-63.33c17.25-9.86,23.24-31.84,13.38-49.09c-9.85-17.25-31.83-23.21-49.09-13.38
		c-41.67,23.83-173,81.93-228.05,37.86c-18.03-14.43-38.75-25.04-61.57-31.52c-9.88-2.79-19.9-1.13-28.08,3.69
		c-27.86-49.02-80.47-82.23-140.76-82.23C1385.36,2751.66,1312.73,2824.29,1312.73,2913.55z M1474.62,2823.61
		c49.59,0,89.94,40.35,89.94,89.94c0,49.59-40.35,89.94-89.94,89.94c-49.59,0-89.94-40.35-89.94-89.94
		C1384.68,2863.96,1425.03,2823.61,1474.62,2823.61z"/>
</g>
</svg>
