<?xml version="1.0" encoding="UTF-8"?>
<svg id="Outline" xmlns="http://www.w3.org/2000/svg" version="1.1" viewBox="0 0 2500 2500">
  <path d="M2215.05664,636.48336l-156.24-156.24c-7.32375-7.32375-17.24133-11.44336-27.61664-11.44336H468.8c-10.37531,0-20.29289,4.11961-27.61664,11.44336l-156.24,156.24c-7.32375,7.32375-11.44336,17.2604-11.44336,27.61664v1171.8c0,10.35624,4.11961,20.29289,11.44336,27.61664l156.24,156.24c7.32375,7.32375,17.24133,11.44336,27.61664,11.44336h1562.4c10.37531,0,20.29289-4.11961,27.61664-11.44336l156.24-156.24c7.32375-7.32375,11.44336-17.2604,11.44336-27.61664V664.1c0-10.35624-4.11961-20.29289-11.44336-27.61664ZM2148.38,1819.72672l-133.35328,133.35328H484.97328l-133.35328-133.35328V680.27328l133.35328-133.35328h1530.05344l133.35328,133.35328v1139.45344Z" fill="#000" stroke-width="0"/>
  <path d="M1953.08,625.04H546.92c-10.33717,0-20.29289,4.11961-27.61664,11.42429l-78.12,78.12c-7.32375,7.34282-11.44336,17.27947-11.44336,27.63571v1015.56c0,10.35624,4.11961,20.29289,11.44336,27.63571l78.12,78.12c7.32375,7.30468,17.27947,11.42429,27.61664,11.42429h1406.16c10.33717,0,20.29289-4.11961,27.61664-11.42429l78.12-78.12c7.32375-7.34282,11.44336-17.27947,11.44336-27.63571v-546.84c0-21.57073-17.4702-39.06-39.06-39.06s-39.06,17.48927-39.06,39.06v252.43574l-479.20975-513.43969c-7.66705-8.25829-18.5001-13.04543-29.82902-12.39697-11.29078.36237-21.81867,5.58817-28.98984,14.3042l-339.24316,414.63105-269.50542-224.595c-15.52482-12.931-38.33525-11.88202-52.63945,2.38403l-284.86336,284.86336v-670.73344l55.23328-55.23328h1373.81344l55.23328,55.23328v140.06672c0,21.57073,17.4702,39.06,39.06,39.06s39.06-17.48927,39.06-39.06v-156.24c0-10.35624-4.11961-20.29289-11.44336-27.63571l-78.12-78.12c-7.32375-7.30468-17.27947-11.42429-27.61664-11.42429ZM1486.30537,1035.89475l505.83463,541.99088v163.7211l-55.23328,55.23328H863.72464l285.83366-349.35623c.22648-.25748.55071-.35522.77004-.61985.24079-.28847.2837-.65799.51495-.95123l335.46208-410.01795ZM822.74311,1224.72925l242.6469,202.21846-302.63871,369.89229h-199.65801l-55.23328-55.23328v-202.01344l314.88311-314.86403Z" fill="#000" stroke-width="0"/>
  <path d="M976.58,937.52c0,64.61684,52.56316,117.18,117.18,117.18s117.18-52.56316,117.18-117.18-52.56316-117.18-117.18-117.18-117.18,52.56316-117.18,117.18ZM1132.82,937.52c0,21.53259-17.50834,39.06-39.06,39.06s-39.06-17.52741-39.06-39.06,17.50834-39.06,39.06-39.06,39.06,17.52741,39.06,39.06Z" fill="#000" stroke-width="0"/>
  <circle cx="2031.2" cy="1054.7" r="39.06" fill="#000" stroke-width="0"/>
</svg>